<svg width="30" height="28" viewBox="0 0 30 28" fill="none" xmlns="http://www.w3.org/2000/svg">
<path fill-rule="evenodd" clip-rule="evenodd" d="M21.3812 4.3478C20.0552 4.3478 18.7293 5.01079 17.7348 6.00526L16.4088 7.49697C16.0773 7.82847 15.5801 7.99421 15.2486 7.99421C14.9171 7.99421 14.4199 7.82847 14.0884 7.49697L12.5967 6.00526C10.442 3.85056 7.12707 3.85056 5.13812 6.00526C2.98343 8.3257 2.98343 12.1379 4.97238 14.2926L15.0829 23.5743L25.0276 14.2926C26.0221 13.1323 26.6851 11.6406 26.6851 10.1489C26.6851 8.65719 26.1878 6.99974 25.0276 6.00526C24.0331 5.01079 22.7072 4.3478 21.3812 4.3478ZM21.3812 1.03289C23.7017 1.03289 25.8564 2.02736 27.5138 3.68482C29.1713 5.34228 30 7.66272 30 10.1489C30 12.4693 29.1713 14.7898 27.3481 16.613L16.0773 27.055C15.4144 27.718 14.4199 27.718 13.7569 27.055L2.48619 16.613C-0.828729 12.9666 -0.828729 7.33123 2.48619 3.68482C5.80111 0.0384101 11.4365 0.0384101 14.7514 3.68482L15.0829 3.85056L15.2486 3.68482C16.9061 2.02736 19.0608 1.03289 21.3812 1.03289Z" fill="black"/>
</svg>
