<svg width="30" height="30" viewBox="0 0 30 30" fill="none" xmlns="http://www.w3.org/2000/svg">
<path fill-rule="evenodd" clip-rule="evenodd" d="M26.3909 9.83334H9.58678L12.0534 18.9292L25.1576 16.6167C25.9285 16.4625 26.3909 15.8458 26.3909 15.075V9.83334ZM3.57428 0.583344C5.73262 0.583344 7.42845 1.97084 8.04512 3.97501L8.81595 6.75001H27.9326C28.8576 6.75001 29.4743 7.36668 29.4743 8.29168V14.9208C29.4743 17.0792 27.9326 19.0833 25.6201 19.5458L11.2826 22.1667C10.5118 22.3208 9.74095 21.8583 9.58678 21.0875L5.11595 4.74584C4.96178 4.12918 4.34512 3.66668 3.57428 3.66668H1.72428C0.799284 3.66668 0.182617 3.05001 0.182617 2.12501C0.182617 1.20001 0.799284 0.583344 1.72428 0.583344H3.57428ZM26.3909 23.7083C28.0868 23.7083 29.4743 25.0958 29.4743 26.7917C29.4743 28.4875 28.0868 29.875 26.3909 29.875C24.6951 29.875 23.3076 28.4875 23.3076 26.7917C23.3076 25.0958 24.6951 23.7083 26.3909 23.7083ZM9.43262 23.7083C11.1285 23.7083 12.516 25.0958 12.516 26.7917C12.516 28.4875 11.1285 29.875 9.43262 29.875C7.73678 29.875 6.34928 28.4875 6.34928 26.7917C6.34928 25.0958 7.73678 23.7083 9.43262 23.7083Z" fill="black"/>
</svg>
